<?xml version="1.0" encoding="UTF-8" standalone="no"?>
<!-- Created with Inkscape (http://www.inkscape.org/) -->

<svg
   width="91.799004mm"
   height="106.00055mm"
   viewBox="0 0 91.799004 106.00055"
   version="1.1"
   id="svg1"
   inkscape:version="1.3 (0e150ed6c4, 2023-07-21)"
   sodipodi:docname="logomark-semi-background.svg"
   xmlns:inkscape="http://www.inkscape.org/namespaces/inkscape"
   xmlns:sodipodi="http://sodipodi.sourceforge.net/DTD/sodipodi-0.dtd"
   xmlns="http://www.w3.org/2000/svg"
   xmlns:svg="http://www.w3.org/2000/svg">
  <sodipodi:namedview
     id="namedview1"
     pagecolor="#ffffff"
     bordercolor="#666666"
     borderopacity="1.0"
     inkscape:showpageshadow="2"
     inkscape:pageopacity="0.0"
     inkscape:pagecheckerboard="0"
     inkscape:deskcolor="#d1d1d1"
     inkscape:document-units="mm"
     inkscape:zoom="0.97890839"
     inkscape:cx="252.83265"
     inkscape:cy="21.96324"
     inkscape:window-width="1920"
     inkscape:window-height="991"
     inkscape:window-x="1341"
     inkscape:window-y="1344"
     inkscape:window-maximized="1"
     inkscape:current-layer="layer1" />
  <defs
     id="defs1" />
  <g
     inkscape:label="Layer 1"
     inkscape:groupmode="layer"
     id="layer1"
     transform="translate(-9.0648402,-49.467232)">
    <path
       id="path144"
       style="fill:#ffffff;fill-rule:evenodd;stroke:none;stroke-width:3.77953;stroke-linejoin:round;opacity:0.5"
       d="M 54.96434,49.467232 9.0648402,75.967372 v 53.000268 l 45.8994998,26.50014 45.8995,-26.50014 V 75.967372 Z" />
    <g
       id="g160"
       transform="matrix(1.0322581,0,0,1.0322581,-280.27794,-141.42546)"
       style="stroke-width:0.96875">
      <path
         id="path150"
         style="fill:#4dabcf;fill-opacity:1;fill-rule:evenodd;stroke:none;stroke-width:3.66141;stroke-linejoin:round"
         d="m 303.10908,199.99985 -19.48596,11.25033 19.48596,11.24983 19.48545,-11.24983 z m 2.60169,5.71903 c 0.21141,-0.005 0.40084,0.0963 0.68234,0.25882 l 0.86156,0.49761 c 0.58749,0.33919 0.64703,0.44025 0.31789,0.63028 -0.27105,0.15649 -1.78264,0.87148 -2.90607,1.47481 2.60591,-0.32869 4.17008,0.32818 4.85547,0.72389 2.01702,1.16453 2.11339,3.05379 -1.00373,4.85347 -3.46563,2.00088 -7.41637,2.17875 -10.0013,0.68634 -1.74286,-1.00624 -3.32187,-3.16979 1.40222,-5.89725 l 5.3631,-3.09631 c 0.16707,-0.088 0.30168,-0.12891 0.42852,-0.13166 z m -1.16242,3.7436 c -1.05132,0.0134 -2.18766,0.26829 -3.19443,0.84955 -2.71055,1.56493 -1.93837,2.83759 -0.93966,3.4142 0.84206,0.48616 2.8356,1.27963 4.60567,1.09434 0.46687,-0.0434 1.16624,-0.19835 2.09557,-0.7349 2.5363,-1.46433 1.29111,-3.34608 0.11614,-4.02445 -0.66581,-0.38441 -1.63198,-0.61214 -2.68329,-0.59874 z" />
      <path
         id="path151"
         style="fill:#4dabcf;fill-opacity:1;fill-rule:evenodd;stroke:none;stroke-width:3.66141;stroke-linejoin:round"
         d="m 324.75969,187.49998 -19.48595,11.24983 19.48595,11.25033 19.48546,-11.25033 z m -2.22323,6.32428 c 3.03208,-0.007 5.66114,1.50079 6.96706,2.25477 1.95828,1.13061 6.42384,3.75317 1.77719,6.43591 -4.66602,2.69393 -9.20902,0.0935 -11.14771,-1.02576 -1.91911,-1.108 -6.56034,-3.81007 -1.89432,-6.50399 1.45812,-0.84185 2.91956,-1.15783 4.29778,-1.16093 z m -1.3857,1.07532 c -0.88018,-0.0324 -1.66995,0.18241 -2.20722,0.49261 -0.46466,0.26827 -1.62417,1.16395 -0.11364,2.30433 0.86342,0.67734 2.1364,1.4122 3.54636,2.22624 1.07706,0.62183 3.11375,1.79749 4.3063,2.28481 1.68124,0.68003 3.19628,0.30278 3.89328,-0.0996 0.58083,-0.33534 1.52611,-1.198 -0.024,-2.40595 -0.88278,-0.66617 -2.66499,-1.69473 -3.76162,-2.32787 -1.60578,-0.92709 -3.68112,-2.12559 -4.73482,-2.35389 -0.30738,-0.0713 -0.61122,-0.10985 -0.90461,-0.12065 z" />
      <path
         id="path152"
         style="fill:#4dabcf;fill-opacity:1;fill-rule:evenodd;stroke:none;stroke-width:3.66141;stroke-linejoin:round"
         d="m 324.75969,212.50022 -19.48595,11.24983 19.48595,11.24983 19.48546,-11.24983 z m -5.20289,6.94604 c 0.21813,-0.016 0.39555,0.0863 0.66481,0.24179 l 11.27987,6.51251 2.71033,-1.56492 0.92063,0.53115 c -0.91066,0.4579 -2.96311,1.64297 -3.91181,2.19069 -0.94869,0.54773 -3.00105,1.73251 -3.79416,2.25828 l -0.92013,-0.53165 2.69081,-1.55341 -10.12395,-5.84519 c -0.77021,0.87434 -1.81583,1.50021 -2.12561,1.67906 l -0.38698,0.22378 -0.92063,-0.53165 0.38748,-0.22328 c 0.40658,-0.23474 2.40083,-1.38639 2.77541,-2.89155 0.0372,-0.17975 0.0759,-0.20194 0.28885,-0.3249 0.18877,-0.10899 0.3342,-0.16113 0.46508,-0.17071 z" />
      <path
         id="path153"
         style="fill:#4dabcf;fill-opacity:1;fill-rule:evenodd;stroke:none;stroke-width:3.66141;stroke-linejoin:round"
         d="m 346.41031,199.99985 -19.48596,11.25033 19.48596,11.24983 19.48545,-11.24983 z m 1.05329,7.31349 c 0.7329,-0.0106 1.46664,0.16059 2.16917,0.5662 1.74286,1.00624 3.30836,3.76568 4.20917,4.28577 0.27416,0.15828 0.50759,0.13614 0.68184,0.0355 0.2517,-0.14532 0.4233,-0.49284 0.36145,-0.84153 -0.18446,-0.93368 -1.12396,-1.45428 -1.06832,-1.73514 0.019,-0.0561 0.15382,-0.2016 0.34743,-0.31338 0.23233,-0.13414 0.56243,-0.23409 0.817,-0.0871 0.41124,0.23743 2.10633,2.33394 0.11214,3.48528 -0.98741,0.57009 -2.62076,0.81174 -3.77614,0.14468 -0.93998,-0.54269 -2.15139,-2.9635 -4.0705,-4.0715 -0.86164,-0.49747 -1.52278,-0.38742 -1.98745,-0.11915 -0.50338,0.29063 -1.39163,1.02972 -0.93014,2.41397 0.18068,0.55144 0.37631,0.64217 0.63178,0.87908 3.87247,3.71128 3.71484,3.55359 3.79516,3.80117 0.10036,0.30386 -0.0713,0.65152 -0.45856,0.87508 -0.44531,0.25709 -1.18444,0.32199 -1.69358,0.028 -0.19584,-0.11306 -0.33357,-0.25936 -0.47108,-0.38347 l -3.71507,-3.55337 c -0.3734,-0.34972 -0.80626,-0.77832 -1.2175,-1.01575 -0.50914,-0.29395 -0.80028,-0.21658 -0.95517,-0.12715 -0.81317,0.46948 1.14874,1.95992 1.20949,2.1962 0.0403,0.13504 -0.0755,0.22481 -0.36595,0.39248 -0.19361,0.11178 -0.52327,0.2567 -0.81701,0.0871 -0.0392,-0.0226 -2.53216,-2.06543 -0.63478,-3.16089 0.58083,-0.33534 1.97728,-0.87023 3.5003,-0.43804 -0.0293,-1.00061 0.39091,-1.83122 1.57194,-2.51309 0.87124,-0.50301 1.81208,-0.81732 2.75438,-0.83102 z" />
      <path
         id="path154"
         style="fill:#decd85;fill-opacity:1;fill-rule:evenodd;stroke:none;stroke-width:3.66141;stroke-linejoin:round"
         d="m 282.54079,213.12499 v 47.49989 l 41.13607,23.7502 v -47.4999 z m 6.47947,11.85006 c 0.22723,-0.0246 0.53339,0.11784 0.84954,0.30037 l 26.5176,15.30982 1.18546,11.85408 -1.85729,-1.07232 c -1.06701,-9.10863 -5.13733,-11.92034 -11.89512,-15.82195 l -7.39008,-4.26675 9.04962,17.64069 c 0.23711,0.45998 0.55318,1.05781 0.55318,1.51937 0,0.5077 -0.35573,0.67192 -0.75092,0.813 l -11.57874,4.85346 9.68191,5.58987 c 6.95536,4.01569 8.53649,4.05153 9.88014,3.25801 1.46221,-0.81739 2.13386,-2.55263 2.45001,-5.09326 l 1.85729,1.07232 -1.18546,11.31591 -26.5176,-15.30982 c -0.51375,-0.29662 -1.14591,-0.75385 -1.14591,-1.49234 0,-0.64617 0.75087,-0.81298 2.68731,-1.63351 l 9.36601,-3.91581 -11.53969,-22.49365 c -0.27663,-0.52896 -0.59273,-1.08095 -0.59273,-1.72713 0,-0.48463 0.14823,-0.67578 0.37547,-0.70036 z" />
      <path
         id="path155"
         style="fill:#4d77cf;fill-opacity:1;fill-rule:evenodd;stroke:none;stroke-width:3.66141;stroke-linejoin:round"
         d="m 366.99111,213.1325 -41.14508,23.73517 -0.0165,47.4999 41.14458,-23.73518 z m -7.47569,11.53167 v 33.03912 l -6.69373,3.86425 -13.31887,-13.85503 v 21.54498 l -6.19762,3.5784 v -33.03912 l 6.49048,-3.7471 13.52212,14.25652 v -22.06362 z" />
    </g>
  </g>
</svg>
